<?xml version="1.0" encoding="UTF-8" standalone="no"?> <svg width="64" height="64" viewBox="0 0 64 64" fill="none" xmlns="http://www.w3.org/2000/svg">
<path d="M61.4101 24.0001C59.4097 21.9985 56.9894 20.4666 54.3242 19.5154C51.659 18.5642 48.8157 18.2173 46.0001 18.5001C47.426 16.0595 48.4397 13.4005 49.0001 10.6301C49.7001 6.93006 48.9101 6.13006 48.5301 5.75006C48.2092 5.3747 47.7609 5.1313 47.2713 5.06672C46.7818 5.00215 46.2856 5.12097 45.8784 5.40029C45.4712 5.67962 45.1817 6.09971 45.0657 6.57969C44.9497 7.05967 45.0154 7.56559 45.2501 8.00006C44.9264 11.64 43.6351 15.1271 41.5101 18.1001C41.6037 17.4374 41.6538 16.7693 41.6601 16.1001C41.6638 14.1078 41.2724 12.1345 40.5085 10.2944C39.7447 8.45439 38.6236 6.78405 37.2101 5.38006C37.0242 5.19424 36.8036 5.04684 36.5609 4.94627C36.3181 4.84571 36.0579 4.79395 35.7951 4.79395C35.5323 4.79395 35.2721 4.84571 35.0293 4.94627C34.7865 5.04684 34.5659 5.19424 34.3801 5.38006C34.1942 5.56588 34.0468 5.78648 33.9463 6.02927C33.8457 6.27205 33.794 6.53227 33.794 6.79506C33.794 7.05785 33.8457 7.31806 33.9463 7.56085C34.0468 7.80364 34.1942 8.02424 34.3801 8.21006C35.7504 9.58241 36.7395 11.2882 37.2498 13.1592C37.7601 15.0303 37.7739 17.002 37.2901 18.8801C36.5393 17.504 35.5927 16.2442 34.4801 15.1401C34.1008 14.7635 33.5875 14.5529 33.053 14.5548C32.5185 14.5567 32.0067 14.7708 31.6301 15.1501C31.2535 15.5293 31.0429 16.0426 31.0448 16.5771C31.0467 17.1116 31.2608 17.6234 31.6401 18.0001C32.8549 19.1608 33.7828 20.5885 34.3501 22.1701C34.6501 23.1701 34.5801 23.8301 34.3501 24.0301L34.2901 24.1001C34.199 24.2016 34.1186 24.3122 34.0501 24.4301L34.0001 24.5301C34.0001 24.5801 33.9401 24.6301 33.9201 24.6901C33.9171 24.7433 33.9171 24.7968 33.9201 24.8501C33.8947 24.932 33.8747 25.0155 33.8601 25.1001C33.8601 25.1601 33.8601 25.2301 33.8601 25.2901C33.8422 25.5047 33.859 25.7208 33.9101 25.9301V25.9901C33.9288 26.0681 33.9521 26.1449 33.9801 26.2201V26.2201C34.0961 26.4598 34.2611 26.6726 34.4643 26.8448C34.6675 27.0171 34.9045 27.1449 35.1601 27.2201V27.2201H35.2201C35.4015 27.2765 35.5901 27.3068 35.7801 27.3101H35.8901H36.1801H36.2901L36.5701 27.2201C37.4091 26.8741 38.2214 26.4663 39.0001 26.0001C39.7665 25.8943 40.5457 25.9282 41.3001 26.1001C43.6174 26.7005 45.7223 27.933 47.3801 29.6601C47.7553 30.0353 48.2643 30.2462 48.7951 30.2462C49.3258 30.2462 49.8348 30.0353 50.2101 29.6601C50.5853 29.2848 50.7962 28.7758 50.7962 28.2451C50.7962 27.7143 50.5853 27.2053 50.2101 26.8301C48.5389 25.115 46.539 23.7545 44.3301 22.8301C46.8534 22.2131 49.4932 22.257 51.9945 22.9577C54.4959 23.6584 56.7744 24.9921 58.6101 26.8301C58.9955 27.1435 59.4838 27.3023 59.9798 27.2754C60.4759 27.2486 60.9442 27.0382 61.2936 26.685C61.643 26.3319 61.8485 25.8613 61.87 25.365C61.8916 24.8687 61.7276 24.3821 61.4101 24.0001V24.0001Z" fill="url(#paint0_linear)"/>
<path d="M37.21 23.9999C35.0727 21.8401 32.1663 20.6156 29.1278 20.595C26.0892 20.5744 23.1664 21.7593 21 23.8899C16.6027 28.9134 12.5913 34.2619 9.00003 39.8899C0.650033 52.7999 1.33003 56.3499 3.09003 58.1199C3.46878 58.5005 3.92407 58.7963 4.42575 58.9877C4.92742 59.179 5.46403 59.2616 6.00003 59.2299C8.57003 59.2299 13 57.5999 21.34 52.2299C26.9681 48.6388 32.3167 44.6274 37.34 40.2299C38.4039 39.1692 39.2442 37.9058 39.811 36.5144C40.3779 35.1231 40.6598 33.6322 40.64 32.1299C40.6177 29.0728 39.3843 26.1492 37.21 23.9999Z" fill="url(#paint1_linear)"/>
<path opacity="0.2" d="M5.84003 58.1501C4.07003 56.3801 3.40003 52.8401 11.75 39.9301C15.3413 34.3021 19.3527 28.9535 23.75 23.9301C25.5708 22.1123 27.9609 20.9754 30.52 20.7101C28.7955 20.4717 27.0392 20.6346 25.388 21.1862C23.7367 21.7377 22.2351 22.6631 21 23.8901C16.6027 28.9135 12.5913 34.2621 9.00003 39.8901C0.650033 52.8001 1.33003 56.3501 3.09003 58.1201C3.46878 58.5007 3.92407 58.7964 4.42575 58.9878C4.92742 59.1792 5.46403 59.2617 6.00003 59.2301C6.49024 59.2245 6.97893 59.1743 7.46003 59.0801C6.84815 58.9167 6.28966 58.5961 5.84003 58.1501Z" fill="black"/>
<g opacity="0.4">
<path opacity="0.4" d="M24.42 25.79C24.2446 25.4992 24.0009 25.2555 23.71 25.08C23.2406 24.7989 22.6787 24.7157 22.148 24.8489C21.6173 24.982 21.1612 25.3206 20.88 25.79C20.5989 26.2594 20.5158 26.8213 20.6489 27.352C20.7821 27.8828 21.1206 28.3389 21.59 28.62L28.59 32.83L24.42 25.79Z" fill="black"/>
<path opacity="0.4" d="M28.32 43.34L22.1 39.95L25.49 46.1699C25.6467 46.4508 25.8664 46.6914 26.1319 46.873C26.3973 47.0545 26.7012 47.1721 27.0198 47.2164C27.3383 47.2606 27.6627 47.2305 27.9676 47.1282C28.2725 47.0259 28.5496 46.8543 28.777 46.6269C29.0044 46.3995 29.1759 46.1225 29.2782 45.8176C29.3805 45.5127 29.4107 45.1883 29.3664 44.8697C29.3221 44.5512 29.2045 44.2473 29.023 43.9818C28.8414 43.7164 28.6008 43.4967 28.32 43.34V43.34Z" fill="black"/>
<path opacity="0.4" d="M10 42.5401C9.42346 42.4269 8.82542 42.5377 8.32766 42.8499C7.8299 43.1622 7.46982 43.6523 7.32073 44.2207C7.17163 44.789 7.24472 45.3928 7.52512 45.9092C7.80552 46.4255 8.27215 46.8156 8.83003 47.0001L12.71 48.0001L11.66 44.1201C11.5447 43.7351 11.3309 43.3868 11.0398 43.1097C10.7487 42.8326 10.3903 42.6363 10 42.5401Z" fill="black"/>
</g>
<defs>
<linearGradient id="paint0_linear" x1="31.0601" y1="17.5101" x2="62.0001" y2="17.5101" gradientUnits="userSpaceOnUse">
<stop stop-color="#0FC000"/>
<stop offset="0.28" stop-color="#0BA809"/>
<stop offset="0.87" stop-color="#026B21"/>
<stop offset="1" stop-color="#005C27"/>
</linearGradient>
<linearGradient id="paint1_linear" x1="1.98003" y1="39.9099" x2="40.62" y2="39.9099" gradientUnits="userSpaceOnUse">
<stop stop-color="#FE7A18"/>
<stop offset="0.33" stop-color="#FE9215"/>
<stop offset="1" stop-color="#FFCC0F"/>
</linearGradient>
</defs>
</svg>
