<svg width="158" height="66" viewBox="0 0 158 66" fill="none" xmlns="http://www.w3.org/2000/svg">
<path d="M11.06 21.24C10.14 21.24 9.30667 21.0933 8.56 20.8C7.82667 20.4933 7.19333 20.04 6.66 19.44C6.14 18.84 5.74 18.1 5.46 17.22C5.18 16.3267 5.04 15.2933 5.04 14.12C5.04 12.9467 5.18 11.9067 5.46 11C5.74 10.08 6.14 9.31333 6.66 8.7C7.19333 8.07333 7.82667 7.6 8.56 7.28C9.30667 6.96 10.14 6.8 11.06 6.8C12.3133 6.8 13.3533 7.06667 14.18 7.6C15.0067 8.13333 15.6667 8.94 16.16 10.02L13.9 11.22C13.7 10.5933 13.3733 10.0933 12.92 9.72C12.4667 9.33333 11.8467 9.14 11.06 9.14C10.0733 9.14 9.28667 9.47333 8.7 10.14C8.12667 10.8067 7.84 11.74 7.84 12.94V15.14C7.84 16.3533 8.12667 17.2867 8.7 17.94C9.28667 18.58 10.0733 18.9 11.06 18.9C11.8467 18.9 12.4867 18.6867 12.98 18.26C13.4867 17.8333 13.8533 17.3067 14.08 16.68L16.22 17.94C15.7133 18.98 15.04 19.7933 14.2 20.38C13.36 20.9533 12.3133 21.24 11.06 21.24ZM22.452 21.24C21.7054 21.24 21.032 21.1133 20.432 20.86C19.8454 20.6067 19.3387 20.24 18.912 19.76C18.4987 19.28 18.1787 18.7067 17.952 18.04C17.7254 17.36 17.612 16.6 17.612 15.76C17.612 14.92 17.7254 14.1667 17.952 13.5C18.1787 12.8333 18.4987 12.2667 18.912 11.8C19.3387 11.32 19.8454 10.9533 20.432 10.7C21.032 10.4467 21.7054 10.32 22.452 10.32C23.1987 10.32 23.872 10.4467 24.472 10.7C25.072 10.9533 25.5787 11.32 25.992 11.8C26.4187 12.2667 26.7454 12.8333 26.972 13.5C27.1987 14.1667 27.312 14.92 27.312 15.76C27.312 16.6 27.1987 17.36 26.972 18.04C26.7454 18.7067 26.4187 19.28 25.992 19.76C25.5787 20.24 25.072 20.6067 24.472 20.86C23.872 21.1133 23.1987 21.24 22.452 21.24ZM22.452 19.18C23.132 19.18 23.6654 18.9733 24.052 18.56C24.4387 18.1467 24.632 17.54 24.632 16.74V14.8C24.632 14.0133 24.4387 13.4133 24.052 13C23.6654 12.5867 23.132 12.38 22.452 12.38C21.7854 12.38 21.2587 12.5867 20.872 13C20.4854 13.4133 20.292 14.0133 20.292 14.8V16.74C20.292 17.54 20.4854 18.1467 20.872 18.56C21.2587 18.9733 21.7854 19.18 22.452 19.18ZM29.5816 21V10.56H32.1416V12.3H32.2416C32.4549 11.74 32.7882 11.2733 33.2416 10.9C33.7082 10.5133 34.3482 10.32 35.1616 10.32C36.2416 10.32 37.0682 10.6733 37.6416 11.38C38.2149 12.0867 38.5016 13.0933 38.5016 14.4V21H35.9416V14.66C35.9416 13.9133 35.8082 13.3533 35.5416 12.98C35.2749 12.6067 34.8349 12.42 34.2216 12.42C33.9549 12.42 33.6949 12.46 33.4416 12.54C33.2016 12.6067 32.9816 12.7133 32.7816 12.86C32.5949 12.9933 32.4416 13.1667 32.3216 13.38C32.2016 13.58 32.1416 13.82 32.1416 14.1V21H29.5816ZM44.5994 21C43.7194 21 43.046 20.7733 42.5794 20.32C42.126 19.8533 41.8994 19.1933 41.8994 18.34V12.6H40.3594V10.56H41.1594C41.546 10.56 41.806 10.4733 41.9394 10.3C42.086 10.1133 42.1594 9.84 42.1594 9.48V7.7H44.4594V10.56H46.5994V12.6H44.4594V18.96H46.4394V21H44.5994ZM50.0998 9.04C49.5665 9.04 49.1798 8.92 48.9398 8.68C48.7132 8.44 48.5998 8.13333 48.5998 7.76V7.36C48.5998 6.98667 48.7132 6.68 48.9398 6.44C49.1798 6.2 49.5665 6.08 50.0998 6.08C50.6198 6.08 50.9998 6.2 51.2398 6.44C51.4798 6.68 51.5998 6.98667 51.5998 7.36V7.76C51.5998 8.13333 51.4798 8.44 51.2398 8.68C50.9998 8.92 50.6198 9.04 50.0998 9.04ZM48.8198 10.56H51.3798V21H48.8198V10.56ZM54.3472 21V10.56H56.9072V12.3H57.0072C57.2205 11.74 57.5539 11.2733 58.0072 10.9C58.4739 10.5133 59.1139 10.32 59.9272 10.32C61.0072 10.32 61.8339 10.6733 62.4072 11.38C62.9805 12.0867 63.2672 13.0933 63.2672 14.4V21H60.7072V14.66C60.7072 13.9133 60.5739 13.3533 60.3072 12.98C60.0405 12.6067 59.6005 12.42 58.9872 12.42C58.7205 12.42 58.4605 12.46 58.2072 12.54C57.9672 12.6067 57.7472 12.7133 57.5472 12.86C57.3605 12.9933 57.2072 13.1667 57.0872 13.38C56.9672 13.58 56.9072 13.82 56.9072 14.1V21H54.3472ZM72.345 19.26H72.245C72.1517 19.5267 72.025 19.78 71.865 20.02C71.7183 20.2467 71.525 20.4533 71.285 20.64C71.0583 20.8267 70.7783 20.9733 70.445 21.08C70.125 21.1867 69.7517 21.24 69.325 21.24C68.245 21.24 67.4183 20.8867 66.845 20.18C66.2717 19.4733 65.985 18.4667 65.985 17.16V10.56H68.545V16.9C68.545 17.62 68.685 18.1733 68.965 18.56C69.245 18.9333 69.6917 19.12 70.305 19.12C70.5583 19.12 70.805 19.0867 71.045 19.02C71.2983 18.9533 71.5183 18.8533 71.705 18.72C71.8917 18.5733 72.045 18.4 72.165 18.2C72.285 17.9867 72.345 17.74 72.345 17.46V10.56H74.905V21H72.345V19.26ZM82.0828 21.24C81.3095 21.24 80.6161 21.1133 80.0028 20.86C79.4028 20.5933 78.8895 20.2267 78.4628 19.76C78.0495 19.28 77.7295 18.7067 77.5028 18.04C77.2761 17.36 77.1628 16.6 77.1628 15.76C77.1628 14.9333 77.2695 14.1867 77.4828 13.52C77.7095 12.8533 78.0295 12.2867 78.4428 11.82C78.8561 11.34 79.3628 10.9733 79.9628 10.72C80.5628 10.4533 81.2428 10.32 82.0028 10.32C82.8161 10.32 83.5228 10.46 84.1228 10.74C84.7228 11.02 85.2161 11.4 85.6028 11.88C85.9895 12.36 86.2761 12.92 86.4628 13.56C86.6628 14.1867 86.7628 14.86 86.7628 15.58V16.42H79.8228V16.68C79.8228 17.44 80.0361 18.0533 80.4628 18.52C80.8895 18.9733 81.5228 19.2 82.3628 19.2C83.0028 19.2 83.5228 19.0667 83.9228 18.8C84.3361 18.5333 84.7028 18.1933 85.0228 17.78L86.4028 19.32C85.9761 19.92 85.3895 20.3933 84.6428 20.74C83.9095 21.0733 83.0561 21.24 82.0828 21.24ZM82.0428 12.24C81.3628 12.24 80.8228 12.4667 80.4228 12.92C80.0228 13.3733 79.8228 13.96 79.8228 14.68V14.84H84.1028V14.66C84.1028 13.94 83.9228 13.36 83.5628 12.92C83.2161 12.4667 82.7095 12.24 82.0428 12.24Z" fill="#304A45"/>
<path d="M101.061 29.0607C101.646 28.475 101.647 27.5252 101.061 26.9394L91.5156 17.3927C90.9298 16.8069 89.9801 16.8068 89.3943 17.3925C88.8084 17.9783 88.8083 18.928 89.3941 19.5139L97.8787 27.9998L89.3928 36.4844C88.8069 37.0702 88.8069 38.0199 89.3926 38.6057C89.9783 39.1916 90.9281 39.1916 91.5139 38.6059L101.061 29.0607ZM0.667241 29.4922L99.9999 29.5L100 26.5L0.667476 26.4922L0.667241 29.4922Z" fill="#304A45"/>
</svg>
