<?xml version="1.0" encoding="UTF-8" standalone="no"?> <svg width="64" height="64" viewBox="0 0 64 64" fill="none" xmlns="http://www.w3.org/2000/svg">
<path d="M58.7 26.393C58.9986 26.6501 59.2436 26.9634 59.421 27.3152C59.5985 27.6669 59.7049 28.0502 59.7343 28.4431C59.7636 28.836 59.7153 29.2308 59.5921 29.605C59.4688 29.9792 59.2731 30.3255 59.016 30.624C57.934 31.879 54.735 33.535 53.48 32.454C52.225 31.373 53.388 27.963 54.47 26.708C54.9892 26.1055 55.7265 25.7338 56.5198 25.6747C57.313 25.6157 58.0972 25.874 58.7 26.393V26.393Z" fill="#E59730"/>
<path d="M61 15H5C4.46957 15 3.96086 15.2107 3.58579 15.5858C3.21071 15.9609 3 16.4696 3 17V17C3 17.5304 3.21071 18.0391 3.58579 18.4142C3.96086 18.7893 4.46957 19 5 19H11.172L7.414 22.757C7.2282 22.9427 7.08081 23.1632 6.98025 23.4059C6.87969 23.6487 6.82793 23.9088 6.82793 24.1715C6.82793 24.4342 6.87969 24.6943 6.98025 24.9371C7.08081 25.1798 7.2282 25.4003 7.414 25.586C7.59973 25.7718 7.82024 25.9192 8.06295 26.0198C8.30565 26.1203 8.56579 26.1721 8.8285 26.1721C9.09121 26.1721 9.35135 26.1203 9.59405 26.0198C9.83676 25.9192 10.0573 25.7718 10.243 25.586L16.828 19H61V15Z" fill="#E59730"/>
<path d="M5 3C7.12173 3 9.15656 3.84285 10.6569 5.34315C12.1571 6.84344 13 8.87827 13 11V15C10.8783 15 8.84344 14.1571 7.34315 12.6569C5.84285 11.1566 5 9.12173 5 7V3Z" fill="#C4F236"/>
<path d="M21 7H25C25 9.12173 24.1571 11.1566 22.6569 12.6569C21.1566 14.1571 19.1217 15 17 15H13C13 12.8783 13.8429 10.8434 15.3431 9.34315C16.8434 7.84285 18.8783 7 21 7V7Z" fill="#C4F236"/>
<path d="M42 39H16C13.7909 39 12 40.7909 12 43C12 45.2091 13.7909 47 16 47H42C44.2091 47 46 45.2091 46 43C46 40.7909 44.2091 39 42 39Z" fill="#F9E109"/>
<path d="M38 33H20C18.3431 33 17 34.3431 17 36C17 37.6569 18.3431 39 20 39H38C39.6569 39 41 37.6569 41 36C41 34.3431 39.6569 33 38 33Z" fill="#F9E109"/>
<path d="M34 27H24C22.3431 27 21 28.3431 21 30C21 31.6569 22.3431 33 24 33H34C35.6569 33 37 31.6569 37 30C37 28.3431 35.6569 27 34 27Z" fill="#F9E109"/>
<path d="M38 47H20C18.3431 47 17 48.3431 17 50C17 51.6569 18.3431 53 20 53H38C39.6569 53 41 51.6569 41 50C41 48.3431 39.6569 47 38 47Z" fill="#F9E109"/>
<path d="M34 53H24C22.3431 53 21 54.3431 21 56C21 57.6569 22.3431 59 24 59H34C35.6569 59 37 57.6569 37 56C37 54.3431 35.6569 53 34 53Z" fill="#F9E109"/>
<path d="M54 33C54 31.8954 53.1046 31 52 31C50.8954 31 50 31.8954 50 33V37C50 38.1046 50.8954 39 52 39C53.1046 39 54 38.1046 54 37V33Z" fill="#F9E109"/>
<path d="M50 32C51.1046 32 52 31.1046 52 30C52 28.8954 51.1046 28 50 28C48.8954 28 48 28.8954 48 30C48 31.1046 48.8954 32 50 32Z" fill="#F9E109"/>
<path d="M60.718 30.733C60.8845 31.09 60.9791 31.4764 60.9963 31.87C61.0135 32.2636 60.953 32.6568 60.8183 33.027C60.6836 33.3972 60.4772 33.7373 60.211 34.0278C59.9449 34.3183 59.6241 34.5535 59.267 34.72C57.767 35.42 54.167 35.62 53.467 34.114C52.767 32.608 55.229 29.982 56.73 29.282C57.0871 29.1153 57.4736 29.0206 57.8673 29.0033C58.261 28.986 58.6543 29.0465 59.0246 29.1812C59.395 29.316 59.7351 29.5224 60.0257 29.7886C60.3163 30.0549 60.5515 30.3758 60.718 30.733V30.733Z" fill="#F9E109"/>
<path d="M21 15H61V17H23C22.4696 17 21.9609 16.7893 21.5858 16.4142C21.2107 16.0391 21 15.5304 21 15Z" fill="#FCBC04"/>
<path d="M7 5V3.262C6.34707 3.09055 5.67506 3.00252 5 3V7C5 9.12173 5.84285 11.1566 7.34315 12.6569C8.84344 14.1571 10.8783 15 13 15V12.738C11.2841 12.295 9.76383 11.2947 8.67788 9.89416C7.59194 8.49365 7.00177 6.7722 7 5Z" fill="#A1D51C"/>
<path d="M22 13H19C18.0533 12.9986 17.1379 12.6608 16.4172 12.047C15.6964 11.4332 15.2172 10.5834 15.065 9.64899C13.7358 11.1142 12.9997 13.0217 13 15H17C18.9612 15.0006 20.8536 14.277 22.314 12.968C22.208 12.975 22.108 13 22 13Z" fill="#A1D51C"/>
<path d="M44 45H18C17.3314 45.0025 16.6729 44.8367 16.0852 44.518C15.4975 44.1992 14.9994 43.7377 14.6369 43.1759C14.2743 42.6142 14.0589 41.9702 14.0105 41.3034C13.9622 40.6365 14.0823 39.9682 14.36 39.36C13.5254 39.7344 12.8446 40.3839 12.4313 41.1999C12.018 42.0159 11.8972 42.9491 12.0892 43.8435C12.2812 44.7378 12.7743 45.5392 13.4861 46.1137C14.1979 46.6882 15.0853 47.0011 16 47H42C42.7696 46.9991 43.5226 46.7759 44.1684 46.3573C44.8141 45.9386 45.3252 45.3422 45.64 44.64C45.1254 44.8758 44.5661 44.9986 44 45V45Z" fill="#FCBC04"/>
<path d="M40 37H22C21.5308 37.0064 21.0668 36.9011 20.6463 36.6929C20.2258 36.4847 19.8608 36.1795 19.5814 35.8025C19.3021 35.4254 19.1164 34.9874 19.0396 34.5245C18.9629 34.0616 18.9973 33.587 19.14 33.14C18.4502 33.345 17.8575 33.7917 17.4703 34.3983C17.0832 35.0048 16.9276 35.7305 17.0321 36.4425C17.1366 37.1544 17.4941 37.8048 18.0392 38.2746C18.5843 38.7443 19.2804 39.0018 20 39H38C38.6435 38.9986 39.2694 38.7896 39.7847 38.404C40.2999 38.0185 40.677 37.477 40.86 36.86C40.5817 36.9485 40.2919 36.9957 40 37V37Z" fill="#FCBC04"/>
<path d="M36 31H26C25.5308 31.0064 25.0668 30.9011 24.6463 30.6929C24.2258 30.4847 23.8608 30.1795 23.5814 29.8025C23.3021 29.4254 23.1164 28.9874 23.0396 28.5245C22.9629 28.0616 22.9973 27.587 23.14 27.14C22.4502 27.345 21.8575 27.7917 21.4703 28.3983C21.0832 29.0048 20.9276 29.7305 21.0321 30.4425C21.1366 31.1544 21.4941 31.8048 22.0392 32.2746C22.5843 32.7443 23.2804 33.0018 24 33H34C34.6435 32.9986 35.2694 32.7896 35.7847 32.404C36.2999 32.0185 36.677 31.477 36.86 30.86C36.5817 30.9485 36.2919 30.9957 36 31V31Z" fill="#FCBC04"/>
<path d="M40 51H22C21.5308 51.0064 21.0668 50.9011 20.6463 50.6929C20.2258 50.4847 19.8608 50.1795 19.5814 49.8025C19.3021 49.4254 19.1164 48.9874 19.0396 48.5245C18.9629 48.0616 18.9973 47.587 19.14 47.14C18.4502 47.345 17.8575 47.7917 17.4703 48.3983C17.0832 49.0048 16.9276 49.7305 17.0321 50.4425C17.1366 51.1544 17.4941 51.8048 18.0392 52.2746C18.5843 52.7443 19.2804 53.0018 20 53H38C38.6435 52.9986 39.2694 52.7896 39.7847 52.404C40.2999 52.0185 40.677 51.477 40.86 50.86C40.5817 50.9485 40.2919 50.9957 40 51V51Z" fill="#FCBC04"/>
<path d="M36 57H26C25.5308 57.0064 25.0668 56.9011 24.6463 56.6929C24.2258 56.4847 23.8608 56.1795 23.5814 55.8025C23.3021 55.4254 23.1164 54.9874 23.0396 54.5245C22.9629 54.0616 22.9973 53.587 23.14 53.14C22.4502 53.345 21.8575 53.7917 21.4703 54.3983C21.0832 55.0048 20.9276 55.7305 21.0321 56.4425C21.1366 57.1544 21.4941 57.8048 22.0392 58.2746C22.5843 58.7443 23.2804 59.0018 24 59H34C34.6435 58.9986 35.2694 58.7896 35.7847 58.404C36.2999 58.0185 36.677 57.477 36.86 56.86C36.5817 56.9485 36.2919 56.9957 36 57V57Z" fill="#FCBC04"/>
<path d="M29 43C30.6569 43 32 41.6569 32 40C32 38.3431 30.6569 37 29 37C27.3431 37 26 38.3431 26 40C26 41.6569 27.3431 43 29 43Z" fill="#E59730"/>
<path d="M51 33V31.277C50.6969 31.4513 50.4449 31.7022 50.2694 32.0046C50.0939 32.3071 50.001 32.6503 50 33V37C50 37.5304 50.2107 38.0391 50.5858 38.4142C50.9609 38.7893 51.4696 39 52 39C52.5304 39 53.0391 38.7893 53.4142 38.4142C53.7893 38.0391 54 37.5304 54 37V36.859C53.143 36.6391 52.3833 36.1408 51.8403 35.4423C51.2973 34.7438 51.0017 33.8847 51 33V33Z" fill="#FCBC04"/>
<path d="M60.267 31.72C58.775 32.42 55.215 32.611 54.484 31.139C53.65 32.139 53.084 33.293 53.468 34.114C54.168 35.614 57.768 35.42 59.268 34.72C59.8945 34.427 60.4006 33.9266 60.7006 33.3034C61.0005 32.6801 61.0759 31.9724 60.914 31.3C60.7175 31.4675 60.5 31.6087 60.267 31.72V31.72Z" fill="#FCBC04"/>
<path d="M51 30C50.5163 29.9992 50.0495 29.8225 49.6865 29.5029C49.3235 29.1833 49.0891 28.7426 49.027 28.263C48.7187 28.4347 48.4614 28.6848 48.281 28.9881C48.1007 29.2913 48.0038 29.6369 48.0001 29.9897C47.9965 30.3425 48.0862 30.69 48.2603 30.9969C48.4343 31.3038 48.6864 31.5592 48.9911 31.7372C49.2957 31.9152 49.642 32.0094 49.9948 32.0103C50.3477 32.0112 50.6945 31.9188 51 31.7424C51.3056 31.566 51.559 31.3119 51.7346 31.0059C51.9103 30.6998 52.0018 30.3528 52 30C51.9971 29.9118 51.9881 29.8239 51.973 29.737C51.6769 29.9075 51.3416 29.9981 51 30V30Z" fill="#FCBC04"/>
<path d="M36 16H61C61.2652 16 61.5196 15.8946 61.7071 15.7071C61.8946 15.5196 62 15.2652 62 15C62 14.7348 61.8946 14.4804 61.7071 14.2929C61.5196 14.1054 61.2652 14 61 14H36C35.7348 14 35.4804 14.1054 35.2929 14.2929C35.1054 14.4804 35 14.7348 35 15C35 15.2652 35.1054 15.5196 35.2929 15.7071C35.4804 15.8946 35.7348 16 36 16Z" fill="#39519D"/>
<path d="M61 18H16.828C16.5628 18.0001 16.3085 18.1054 16.121 18.293L9.536 24.878C9.44316 24.9709 9.33292 25.0446 9.21159 25.0949C9.09026 25.1452 8.9602 25.1712 8.82885 25.1712C8.69751 25.1712 8.56743 25.1454 8.44607 25.0952C8.3247 25.045 8.21441 24.9713 8.1215 24.8785C8.02859 24.7857 7.95488 24.6754 7.90457 24.5541C7.85426 24.4328 7.82834 24.3027 7.8283 24.1714C7.8282 23.9061 7.93349 23.6516 8.121 23.464L11.878 19.707C12.0178 19.5671 12.113 19.389 12.1516 19.195C12.1902 19.0011 12.1703 18.8 12.0947 18.6173C12.019 18.4346 11.8909 18.2785 11.7265 18.1686C11.562 18.0587 11.3687 18 11.171 18H5C4.73478 18 4.48043 17.8946 4.29289 17.7071C4.10536 17.5196 4 17.2652 4 17C4 16.7348 4.10536 16.4804 4.29289 16.2929C4.48043 16.1054 4.73478 16 5 16H32C32.2652 16 32.5196 15.8946 32.7071 15.7071C32.8946 15.5196 33 15.2652 33 15C33 14.7348 32.8946 14.4804 32.7071 14.2929C32.5196 14.1054 32.2652 14 32 14H22.644C23.6912 13.1584 24.5364 12.0927 25.1172 10.8812C25.698 9.66978 25.9997 8.34348 26 7C26 6.73478 25.8946 6.48043 25.7071 6.29289C25.5196 6.10536 25.2652 6 25 6H21C19.6194 6.00031 18.2575 6.31971 17.0207 6.93326C15.7838 7.54681 14.7056 8.43791 13.87 9.537C13.5222 7.43439 12.4401 5.52323 10.816 4.14324C9.19195 2.76325 7.13118 2.00384 5 2C4.73478 2 4.48043 2.10536 4.29289 2.29289C4.10536 2.48043 4 2.73478 4 3V7C4.00051 8.3463 4.30512 9.67509 4.89108 10.8872C5.47704 12.0993 6.32922 13.1634 7.384 14H5C4.20435 14 3.44129 14.3161 2.87868 14.8787C2.31607 15.4413 2 16.2044 2 17C2 17.7956 2.31607 18.5587 2.87868 19.1213C3.44129 19.6839 4.20435 20 5 20H8.757L6.707 22.05C6.14434 22.6127 5.82825 23.3758 5.82825 24.1715C5.82825 24.9672 6.14434 25.7303 6.707 26.293C7.26966 26.8557 8.03278 27.1718 8.8285 27.1718C9.62422 27.1718 10.3873 26.8557 10.95 26.293L17.242 20H28V26H24C22.9391 26 21.9217 26.4214 21.1716 27.1716C20.4214 27.9217 20 28.9391 20 30C20.0041 30.7043 20.1961 31.3947 20.556 32H20C18.9391 32 17.9217 32.4214 17.1716 33.1716C16.4214 33.9217 16 34.9391 16 36C16.0041 36.7043 16.1961 37.3947 16.556 38H16C14.6739 38 13.4021 38.5268 12.4645 39.4645C11.5268 40.4021 11 41.6739 11 43C11 44.3261 11.5268 45.5979 12.4645 46.5355C13.4021 47.4732 14.6739 48 16 48H16.556C16.1961 48.6053 16.0041 49.2957 16 50C16 51.0609 16.4214 52.0783 17.1716 52.8284C17.9217 53.5786 18.9391 54 20 54H20.556C20.1961 54.6053 20.0041 55.2957 20 56C20 57.0609 20.4214 58.0783 21.1716 58.8284C21.9217 59.5786 22.9391 60 24 60H34C35.0609 60 36.0783 59.5786 36.8284 58.8284C37.5786 58.0783 38 57.0609 38 56C37.9959 55.2957 37.8039 54.6053 37.444 54H38C38.8249 53.9976 39.6289 53.7402 40.3018 53.2631C40.9747 52.7861 41.4837 52.1126 41.759 51.335C41.8478 51.085 41.8338 50.81 41.7198 50.5704C41.6059 50.3309 41.4015 50.1463 41.1515 50.0575C40.9015 49.9687 40.6265 49.9827 40.3869 50.0967C40.1474 50.2106 39.9628 50.415 39.874 50.665C39.7371 51.0534 39.4836 51.39 39.1482 51.629C38.8128 51.8679 38.4118 51.9975 38 52H20C19.4696 52 18.9609 51.7893 18.5858 51.4142C18.2107 51.0391 18 50.5304 18 50C18 49.4696 18.2107 48.9609 18.5858 48.5858C18.9609 48.2107 19.4696 48 20 48H42C43.3261 48 44.5979 47.4732 45.5355 46.5355C46.4732 45.5979 47 44.3261 47 43C47 41.6739 46.4732 40.4021 45.5355 39.4645C44.5979 38.5268 43.3261 38 42 38H41.444C41.8039 37.3947 41.9959 36.7043 42 36C42 34.9391 41.5786 33.9217 40.8284 33.1716C40.0783 32.4214 39.0609 32 38 32H37.444C37.8039 31.3947 37.9959 30.7043 38 30C38 28.9391 37.5786 27.9217 36.8284 27.1716C36.0783 26.4214 35.0609 26 34 26H30V20H61C61.2652 20 61.5196 19.8946 61.7071 19.7071C61.8946 19.5196 62 19.2652 62 19C62 18.7348 61.8946 18.4804 61.7071 18.2929C61.5196 18.1054 61.2652 18 61 18ZM21 8H23.929C23.6863 9.66518 22.8529 11.1875 21.5808 12.2891C20.3086 13.3906 18.6828 13.9979 17 14H15.119C16.4235 12.7232 18.1746 12.0056 20 12C20.2652 12 20.5196 11.8946 20.7071 11.7071C20.8946 11.5196 21 11.2652 21 11C21 10.7348 20.8946 10.4804 20.7071 10.2929C20.5196 10.1054 20.2652 10 20 10C18.1564 10.0066 16.3598 10.5825 14.856 11.649C15.4585 10.5454 16.3468 9.62432 17.4278 8.98229C18.5088 8.34025 19.7427 8.00096 21 8V8ZM6 7V4.071C7.66518 4.31366 9.18753 5.14714 10.2891 6.41925C11.3906 7.69136 11.9979 9.31724 12 11V11.437C11.2159 10.3583 10.2424 9.43091 9.127 8.7C9.01795 8.62614 8.89539 8.57455 8.76635 8.54819C8.63731 8.52184 8.50433 8.52123 8.37506 8.5464C8.24578 8.57158 8.12275 8.62205 8.01303 8.6949C7.90331 8.76776 7.80907 8.86157 7.73571 8.97096C7.66235 9.08034 7.61132 9.20314 7.58555 9.3323C7.55978 9.46145 7.55977 9.59443 7.58554 9.72359C7.6113 9.85275 7.66233 9.97555 7.73569 10.0849C7.80904 10.1943 7.90328 10.2881 8.013 10.361C9.30635 11.1668 10.3427 12.3252 11 13.7C9.55722 13.2688 8.29176 12.3843 7.39115 11.1775C6.49054 9.97069 6.00272 8.50582 6 7V7ZM36 56C36 56.5304 35.7893 57.0391 35.4142 57.4142C35.0391 57.7893 34.5304 58 34 58H24C23.4696 58 22.9609 57.7893 22.5858 57.4142C22.2107 57.0391 22 56.5304 22 56C22 55.4696 22.2107 54.9609 22.5858 54.5858C22.9609 54.2107 23.4696 54 24 54H34C34.5304 54 35.0391 54.2107 35.4142 54.5858C35.7893 54.9609 36 55.4696 36 56ZM40 36C40 36.5304 39.7893 37.0391 39.4142 37.4142C39.0391 37.7893 38.5304 38 38 38H35.816C35.5508 38 35.2964 38.1054 35.1089 38.2929C34.9214 38.4804 34.816 38.7348 34.816 39C34.816 39.2652 34.9214 39.5196 35.1089 39.7071C35.2964 39.8946 35.5508 40 35.816 40H42C42.7956 40 43.5587 40.3161 44.1213 40.8787C44.6839 41.4413 45 42.2044 45 43C45 43.7956 44.6839 44.5587 44.1213 45.1213C43.5587 45.6839 42.7956 46 42 46H16C15.2044 46 14.4413 45.6839 13.8787 45.1213C13.3161 44.5587 13 43.7956 13 43C13 42.2044 13.3161 41.4413 13.8787 40.8787C14.4413 40.3161 15.2044 40 16 40H22.184C22.4492 40 22.7036 39.8946 22.8911 39.7071C23.0786 39.5196 23.184 39.2652 23.184 39C23.184 38.7348 23.0786 38.4804 22.8911 38.2929C22.7036 38.1054 22.4492 38 22.184 38H20C19.4696 38 18.9609 37.7893 18.5858 37.4142C18.2107 37.0391 18 36.5304 18 36C18 35.4696 18.2107 34.9609 18.5858 34.5858C18.9609 34.2107 19.4696 34 20 34H38C38.5304 34 39.0391 34.2107 39.4142 34.5858C39.7893 34.9609 40 35.4696 40 36ZM36 30C36 30.5304 35.7893 31.0391 35.4142 31.4142C35.0391 31.7893 34.5304 32 34 32H24C23.4696 32 22.9609 31.7893 22.5858 31.4142C22.2107 31.0391 22 30.5304 22 30C22 29.4696 22.2107 28.9609 22.5858 28.5858C22.9609 28.2107 23.4696 28 24 28H34C34.5304 28 35.0391 28.2107 35.4142 28.5858C35.7893 28.9609 36 29.4696 36 30Z" fill="#39519D"/>
<path d="M60.711 29.066C60.7993 28.2197 60.6147 27.3673 60.1843 26.6332C59.7539 25.8992 59.1002 25.3219 58.3185 24.9857C57.5368 24.6495 56.6682 24.5719 55.8393 24.7642C55.0104 24.9566 54.2647 25.4089 53.711 26.055C53.173 26.7297 52.7527 27.4904 52.468 28.305C52.0874 27.7578 51.5359 27.3526 50.9 27.153C50.6975 26.2145 50.1653 25.3796 49.4 24.8L48.6 24.2C48.4949 24.1212 48.3754 24.0639 48.2481 24.0313C48.1209 23.9987 47.9885 23.9915 47.8585 24.0101C47.7285 24.0286 47.6035 24.0726 47.4905 24.1395C47.3775 24.2064 47.2788 24.2949 47.2 24.4C47.1212 24.5051 47.0638 24.6246 47.0313 24.7518C46.9987 24.879 46.9914 25.0114 47.01 25.1414C47.0286 25.2714 47.0726 25.3965 47.1395 25.5095C47.2064 25.6225 47.2949 25.7212 47.4 25.8L48.2 26.4C48.4825 26.6169 48.7018 26.9056 48.835 27.236C48.554 27.3589 48.2938 27.5249 48.064 27.728C47.4654 27.3162 46.7645 27.0784 46.039 27.041L45.039 27.001C44.9076 26.9957 44.7766 27.0164 44.6532 27.0618C44.5299 27.1072 44.4167 27.1765 44.3201 27.2656C44.2236 27.3548 44.1455 27.462 44.0904 27.5814C44.0353 27.7007 44.0042 27.8297 43.999 27.961C43.9937 28.0923 44.0144 28.2234 44.0598 28.3467C44.1052 28.4701 44.1744 28.5833 44.2636 28.6798C44.3527 28.7764 44.46 28.8545 44.5793 28.9096C44.6986 28.9647 44.8276 28.9957 44.959 29.001L45.959 29.041C46.3586 29.0605 46.7425 29.2023 47.059 29.447C46.9193 30.1533 47.0423 30.8862 47.4049 31.5082C47.7675 32.1302 48.3446 32.5984 49.028 32.825C49.028 32.885 49.003 32.942 49.003 33.002V37.002C49.0048 37.5398 49.1517 38.0671 49.4282 38.5284C49.7047 38.9897 50.1005 39.3679 50.574 39.623L50.108 40.555C49.9894 40.7924 49.97 41.0671 50.054 41.3188C50.138 41.5705 50.3186 41.7784 50.556 41.897C50.7933 42.0156 51.0681 42.035 51.3198 41.9509C51.5714 41.8669 51.7794 41.6864 51.898 41.449L52.66 39.924C53.3238 39.7743 53.9171 39.4033 54.3423 38.872C54.7675 38.3406 54.9994 37.6805 55 37V36.124C55.4679 36.2143 55.9434 36.2595 56.42 36.259C57.5416 36.272 58.6542 36.0566 59.69 35.626C60.166 35.4039 60.5937 35.0903 60.9485 34.703C61.3033 34.3156 61.5784 33.8622 61.758 33.3685C61.9375 32.8749 62.0181 32.3507 61.9952 31.8259C61.9722 31.3012 61.846 30.786 61.624 30.31C61.4044 29.8393 61.0941 29.4166 60.711 29.066V29.066ZM56.6 26.671C57.0475 26.6351 57.4939 26.7529 57.8655 27.0049C58.2371 27.2569 58.5117 27.628 58.644 28.057C57.8524 27.9255 57.0395 28.0364 56.312 28.375C55.4445 28.8271 54.667 29.4341 54.018 30.166C54.2014 29.1501 54.6161 28.19 55.23 27.36C55.4015 27.1603 55.6109 26.9966 55.846 26.8784C56.0812 26.7601 56.3374 26.6896 56.6 26.671V26.671ZM51.031 32.807C51.4768 32.6435 51.8774 32.3765 52.2 32.028C52.3596 32.061 52.5082 32.134 52.632 32.24C52.3868 32.7921 52.3063 33.4032 52.4 34H51V33C51.0023 32.9348 51.0117 32.8701 51.028 32.807H51.031ZM49.079 29.626C49.079 29.619 49.079 29.612 49.086 29.605C49.2283 29.1872 49.5305 28.8428 49.9263 28.6474C50.3221 28.4519 50.7792 28.4213 51.1976 28.5623C51.6159 28.7033 51.9612 29.0043 52.158 29.3995C52.3547 29.7946 52.3868 30.2517 52.2472 30.6704C52.1077 31.0892 51.8078 31.4356 51.4133 31.6336C51.0188 31.8317 50.5619 31.8653 50.1426 31.7271C49.7234 31.5889 49.376 31.2902 49.1767 30.8963C48.9773 30.5025 48.9422 30.0457 49.079 29.626V29.626ZM52 38C51.7348 38 51.4804 37.8946 51.2929 37.7071C51.1053 37.5196 51 37.2652 51 37V36H53V37C53 37.2652 52.8946 37.5196 52.7071 37.7071C52.5195 37.8946 52.2652 38 52 38ZM58.845 33.813C57.491 34.445 54.69 34.37 54.374 33.691C54.283 33.491 54.393 32.891 55.067 32.006C55.6255 31.2586 56.337 30.6388 57.154 30.188C57.392 30.077 57.6495 30.0139 57.9119 30.0024C58.1743 29.9909 58.4364 30.0312 58.6832 30.121C58.9301 30.2108 59.1568 30.3483 59.3504 30.5257C59.5441 30.7032 59.7009 30.917 59.812 31.155C59.923 31.393 59.9861 31.6506 59.9976 31.913C60.0091 32.1754 59.9688 32.4375 59.879 32.6843C59.7892 32.9311 59.6516 33.1578 59.4742 33.3515C59.2968 33.5451 59.083 33.702 58.845 33.813V33.813Z" fill="#39519D"/>
<path d="M29 36C28.2089 36 27.4355 36.2346 26.7777 36.6741C26.1199 37.1136 25.6072 37.7384 25.3045 38.4693C25.0017 39.2002 24.9225 40.0044 25.0769 40.7804C25.2312 41.5563 25.6122 42.269 26.1716 42.8284C26.731 43.3878 27.4437 43.7688 28.2196 43.9231C28.9956 44.0775 29.7998 43.9983 30.5307 43.6955C31.2616 43.3928 31.8864 42.8801 32.3259 42.2223C32.7654 41.5645 33 40.7911 33 40C33 38.9391 32.5786 37.9217 31.8284 37.1716C31.0783 36.4214 30.0609 36 29 36ZM29 42C28.6044 42 28.2178 41.8827 27.8889 41.6629C27.56 41.4432 27.3036 41.1308 27.1522 40.7654C27.0009 40.3999 26.9613 39.9978 27.0384 39.6098C27.1156 39.2219 27.3061 38.8655 27.5858 38.5858C27.8655 38.3061 28.2219 38.1156 28.6098 38.0384C28.9978 37.9613 29.3999 38.0009 29.7654 38.1522C30.1308 38.3036 30.4432 38.56 30.6629 38.8889C30.8827 39.2178 31 39.6044 31 40C31 40.5304 30.7893 41.0391 30.4142 41.4142C30.0391 41.7893 29.5304 42 29 42Z" fill="#39519D"/>
</svg>
